<mxfile host="Electron" modified="2024-07-22T13:32:45.617Z" agent="Mozilla/5.0 (Windows NT 10.0; Win64; x64) AppleWebKit/537.36 (KHTML, like Gecko) draw.io/24.6.4 Chrome/124.0.6367.207 Electron/30.0.6 Safari/537.36" etag="ojowBNg-d672X41y9pPr" version="24.6.4" type="device">
  <diagram name="Page-1" id="5f0bae14-7c28-e335-631c-24af17079c00">
    <mxGraphModel dx="3327" dy="1416" grid="1" gridSize="10" guides="1" tooltips="1" connect="1" arrows="1" fold="1" page="1" pageScale="1" pageWidth="1169" pageHeight="827" background="none" math="0" shadow="0">
      <root>
        <mxCell id="0" />
        <mxCell id="1" parent="0" />
        <mxCell id="90Y9QjRsGdumL3US-0Al-87" value="" style="group" parent="1" connectable="0" vertex="1">
          <mxGeometry x="-1480" y="-590" width="120" height="190" as="geometry" />
        </mxCell>
        <mxCell id="8VMu90FHNc5uFZkxF0Xm-27" style="edgeStyle=orthogonalEdgeStyle;rounded=0;orthogonalLoop=1;jettySize=auto;html=1;exitX=0;exitY=0.25;exitDx=0;exitDy=0;endArrow=halfCircle;endFill=0;" parent="90Y9QjRsGdumL3US-0Al-87" edge="1">
          <mxGeometry relative="1" as="geometry">
            <mxPoint x="-110" y="31.571428571428555" as="targetPoint" />
            <mxPoint y="31.5" as="sourcePoint" />
          </mxGeometry>
        </mxCell>
        <mxCell id="8VMu90FHNc5uFZkxF0Xm-31" style="edgeStyle=orthogonalEdgeStyle;rounded=0;orthogonalLoop=1;jettySize=auto;html=1;exitX=0;exitY=0.25;exitDx=0;exitDy=0;endArrow=halfCircle;endFill=0;" parent="90Y9QjRsGdumL3US-0Al-87" edge="1">
          <mxGeometry relative="1" as="geometry">
            <mxPoint x="-110" y="60" as="targetPoint" />
            <mxPoint y="59.5" as="sourcePoint" />
          </mxGeometry>
        </mxCell>
        <mxCell id="8VMu90FHNc5uFZkxF0Xm-44" style="edgeStyle=orthogonalEdgeStyle;rounded=0;orthogonalLoop=1;jettySize=auto;html=1;endArrow=halfCircle;endFill=0;" parent="90Y9QjRsGdumL3US-0Al-87" edge="1">
          <mxGeometry relative="1" as="geometry">
            <mxPoint x="-110" y="90" as="targetPoint" />
            <mxPoint y="90" as="sourcePoint" />
          </mxGeometry>
        </mxCell>
        <mxCell id="8VMu90FHNc5uFZkxF0Xm-48" style="edgeStyle=orthogonalEdgeStyle;rounded=0;orthogonalLoop=1;jettySize=auto;html=1;exitX=0;exitY=0.75;exitDx=0;exitDy=0;endArrow=halfCircle;endFill=0;" parent="90Y9QjRsGdumL3US-0Al-87" edge="1">
          <mxGeometry relative="1" as="geometry">
            <mxPoint x="-110" y="121" as="targetPoint" />
            <mxPoint y="121.5" as="sourcePoint" />
          </mxGeometry>
        </mxCell>
        <mxCell id="8VMu90FHNc5uFZkxF0Xm-54" style="edgeStyle=orthogonalEdgeStyle;rounded=0;orthogonalLoop=1;jettySize=auto;html=1;exitX=0;exitY=0.75;exitDx=0;exitDy=0;endArrow=halfCircle;endFill=0;" parent="90Y9QjRsGdumL3US-0Al-87" edge="1">
          <mxGeometry relative="1" as="geometry">
            <mxPoint x="-110" y="151.42857142857144" as="targetPoint" />
            <mxPoint y="151.5" as="sourcePoint" />
          </mxGeometry>
        </mxCell>
        <mxCell id="90Y9QjRsGdumL3US-0Al-88" value="" style="rounded=0;whiteSpace=wrap;html=1;fillColor=#dae8fc;strokeColor=#6c8ebf;container=1;" parent="90Y9QjRsGdumL3US-0Al-87" vertex="1">
          <mxGeometry width="120.00000000000001" height="190" as="geometry" />
        </mxCell>
        <mxCell id="90Y9QjRsGdumL3US-0Al-89" value="" style="rounded=0;whiteSpace=wrap;html=1;" parent="90Y9QjRsGdumL3US-0Al-88" vertex="1">
          <mxGeometry width="120" height="30" as="geometry" />
        </mxCell>
        <mxCell id="90Y9QjRsGdumL3US-0Al-90" value="&lt;font style=&quot;font-size: 9px;&quot;&gt;Frontend&lt;/font&gt;" style="text;html=1;align=center;verticalAlign=middle;whiteSpace=wrap;rounded=0;" parent="90Y9QjRsGdumL3US-0Al-88" vertex="1">
          <mxGeometry x="-3" y="14" width="79" height="10" as="geometry" />
        </mxCell>
        <mxCell id="90Y9QjRsGdumL3US-0Al-91" value="" style="group" parent="90Y9QjRsGdumL3US-0Al-87" connectable="0" vertex="1">
          <mxGeometry x="85" y="5" width="40" height="30" as="geometry" />
        </mxCell>
        <mxCell id="90Y9QjRsGdumL3US-0Al-92" value="" style="whiteSpace=wrap;html=1;aspect=fixed;" parent="90Y9QjRsGdumL3US-0Al-91" vertex="1">
          <mxGeometry x="10" width="20" height="20" as="geometry" />
        </mxCell>
        <mxCell id="90Y9QjRsGdumL3US-0Al-93" value="" style="rounded=0;whiteSpace=wrap;html=1;" parent="90Y9QjRsGdumL3US-0Al-91" vertex="1">
          <mxGeometry x="3" y="1.5" width="10" height="7" as="geometry" />
        </mxCell>
        <mxCell id="90Y9QjRsGdumL3US-0Al-94" value="" style="rounded=0;whiteSpace=wrap;html=1;" parent="90Y9QjRsGdumL3US-0Al-91" vertex="1">
          <mxGeometry x="3" y="11.5" width="10" height="7" as="geometry" />
        </mxCell>
        <mxCell id="90Y9QjRsGdumL3US-0Al-95" value="&lt;font style=&quot;font-size: 10px;&quot;&gt;&amp;lt;&amp;lt;service&amp;gt;&amp;gt;&lt;/font&gt;" style="text;html=1;align=center;verticalAlign=middle;whiteSpace=wrap;rounded=0;" parent="90Y9QjRsGdumL3US-0Al-87" vertex="1">
          <mxGeometry x="6" y="2" width="60" height="10" as="geometry" />
        </mxCell>
        <mxCell id="90Y9QjRsGdumL3US-0Al-105" value="" style="group" parent="1" connectable="0" vertex="1">
          <mxGeometry x="-2240" y="-590" width="120" height="190" as="geometry" />
        </mxCell>
        <mxCell id="8VMu90FHNc5uFZkxF0Xm-63" style="edgeStyle=orthogonalEdgeStyle;rounded=0;orthogonalLoop=1;jettySize=auto;html=1;exitX=1;exitY=0.5;exitDx=0;exitDy=0;endArrow=circle;endFill=0;" parent="90Y9QjRsGdumL3US-0Al-105" edge="1">
          <mxGeometry relative="1" as="geometry">
            <mxPoint x="270" y="91.68965517241384" as="targetPoint" />
            <mxPoint x="120" y="92.00000000000011" as="sourcePoint" />
          </mxGeometry>
        </mxCell>
        <mxCell id="8VMu90FHNc5uFZkxF0Xm-72" style="edgeStyle=orthogonalEdgeStyle;rounded=0;orthogonalLoop=1;jettySize=auto;html=1;exitX=1;exitY=0.25;exitDx=0;exitDy=0;endArrow=halfCircle;endFill=0;" parent="90Y9QjRsGdumL3US-0Al-105" source="90Y9QjRsGdumL3US-0Al-106" edge="1">
          <mxGeometry relative="1" as="geometry">
            <mxPoint x="250" y="47.66666666666674" as="targetPoint" />
          </mxGeometry>
        </mxCell>
        <mxCell id="90Y9QjRsGdumL3US-0Al-106" value="" style="rounded=0;whiteSpace=wrap;html=1;fillColor=#dae8fc;strokeColor=#6c8ebf;container=1;" parent="90Y9QjRsGdumL3US-0Al-105" vertex="1">
          <mxGeometry width="120.00000000000001" height="190" as="geometry" />
        </mxCell>
        <mxCell id="90Y9QjRsGdumL3US-0Al-107" value="" style="rounded=0;whiteSpace=wrap;html=1;" parent="90Y9QjRsGdumL3US-0Al-106" vertex="1">
          <mxGeometry width="120" height="30" as="geometry" />
        </mxCell>
        <mxCell id="90Y9QjRsGdumL3US-0Al-108" value="&lt;font size=&quot;1&quot;&gt;Postgree DB&lt;/font&gt;" style="text;html=1;align=center;verticalAlign=middle;whiteSpace=wrap;rounded=0;" parent="90Y9QjRsGdumL3US-0Al-106" vertex="1">
          <mxGeometry x="8" y="15" width="59" height="10" as="geometry" />
        </mxCell>
        <mxCell id="90Y9QjRsGdumL3US-0Al-109" value="" style="group" parent="90Y9QjRsGdumL3US-0Al-105" connectable="0" vertex="1">
          <mxGeometry x="85" y="5" width="40" height="30" as="geometry" />
        </mxCell>
        <mxCell id="90Y9QjRsGdumL3US-0Al-110" value="" style="whiteSpace=wrap;html=1;aspect=fixed;" parent="90Y9QjRsGdumL3US-0Al-109" vertex="1">
          <mxGeometry x="10" width="20" height="20" as="geometry" />
        </mxCell>
        <mxCell id="90Y9QjRsGdumL3US-0Al-111" value="" style="rounded=0;whiteSpace=wrap;html=1;" parent="90Y9QjRsGdumL3US-0Al-109" vertex="1">
          <mxGeometry x="3" y="1.5" width="10" height="7" as="geometry" />
        </mxCell>
        <mxCell id="90Y9QjRsGdumL3US-0Al-112" value="" style="rounded=0;whiteSpace=wrap;html=1;" parent="90Y9QjRsGdumL3US-0Al-109" vertex="1">
          <mxGeometry x="3" y="11.5" width="10" height="7" as="geometry" />
        </mxCell>
        <mxCell id="90Y9QjRsGdumL3US-0Al-113" value="&lt;font style=&quot;font-size: 10px;&quot;&gt;&amp;lt;&amp;lt;service&amp;gt;&amp;gt;&lt;/font&gt;" style="text;html=1;align=center;verticalAlign=middle;whiteSpace=wrap;rounded=0;" parent="90Y9QjRsGdumL3US-0Al-105" vertex="1">
          <mxGeometry x="6" y="2" width="60" height="10" as="geometry" />
        </mxCell>
        <mxCell id="90Y9QjRsGdumL3US-0Al-114" value="]" style="group" parent="1" connectable="0" vertex="1">
          <mxGeometry x="-1850" y="-590" width="120" height="190" as="geometry" />
        </mxCell>
        <mxCell id="8VMu90FHNc5uFZkxF0Xm-28" style="edgeStyle=orthogonalEdgeStyle;rounded=0;orthogonalLoop=1;jettySize=auto;html=1;exitX=1;exitY=0.25;exitDx=0;exitDy=0;endArrow=circle;endFill=0;" parent="90Y9QjRsGdumL3US-0Al-114" edge="1">
          <mxGeometry relative="1" as="geometry">
            <mxPoint x="260" y="31.571428571428555" as="targetPoint" />
            <mxPoint x="120" y="31.5" as="sourcePoint" />
          </mxGeometry>
        </mxCell>
        <mxCell id="8VMu90FHNc5uFZkxF0Xm-34" style="edgeStyle=orthogonalEdgeStyle;rounded=0;orthogonalLoop=1;jettySize=auto;html=1;exitX=1;exitY=0.25;exitDx=0;exitDy=0;endArrow=circle;endFill=0;" parent="90Y9QjRsGdumL3US-0Al-114" edge="1">
          <mxGeometry relative="1" as="geometry">
            <mxPoint x="260" y="60" as="targetPoint" />
            <mxPoint x="120" y="59.5" as="sourcePoint" />
          </mxGeometry>
        </mxCell>
        <mxCell id="8VMu90FHNc5uFZkxF0Xm-46" style="edgeStyle=orthogonalEdgeStyle;rounded=0;orthogonalLoop=1;jettySize=auto;html=1;endArrow=circle;endFill=0;" parent="90Y9QjRsGdumL3US-0Al-114" edge="1">
          <mxGeometry relative="1" as="geometry">
            <mxPoint x="260" y="89" as="targetPoint" />
            <mxPoint x="120" y="89" as="sourcePoint" />
          </mxGeometry>
        </mxCell>
        <mxCell id="8VMu90FHNc5uFZkxF0Xm-47" style="edgeStyle=orthogonalEdgeStyle;rounded=0;orthogonalLoop=1;jettySize=auto;html=1;exitX=1;exitY=0.25;exitDx=0;exitDy=0;endArrow=circle;endFill=0;" parent="90Y9QjRsGdumL3US-0Al-114" edge="1">
          <mxGeometry relative="1" as="geometry">
            <mxPoint x="260" y="121" as="targetPoint" />
            <mxPoint x="120" y="121.5" as="sourcePoint" />
          </mxGeometry>
        </mxCell>
        <mxCell id="8VMu90FHNc5uFZkxF0Xm-55" style="edgeStyle=orthogonalEdgeStyle;rounded=0;orthogonalLoop=1;jettySize=auto;html=1;exitX=1;exitY=0.75;exitDx=0;exitDy=0;endArrow=circle;endFill=0;" parent="90Y9QjRsGdumL3US-0Al-114" edge="1">
          <mxGeometry relative="1" as="geometry">
            <mxPoint x="260" y="151.42857142857144" as="targetPoint" />
            <mxPoint x="120" y="151.5" as="sourcePoint" />
          </mxGeometry>
        </mxCell>
        <mxCell id="8VMu90FHNc5uFZkxF0Xm-61" style="edgeStyle=orthogonalEdgeStyle;rounded=0;orthogonalLoop=1;jettySize=auto;html=1;exitX=0;exitY=0.25;exitDx=0;exitDy=0;endArrow=halfCircle;endFill=0;" parent="90Y9QjRsGdumL3US-0Al-114" edge="1">
          <mxGeometry relative="1" as="geometry">
            <mxPoint x="-120" y="92" as="targetPoint" />
            <mxPoint y="91.50000000000011" as="sourcePoint" />
          </mxGeometry>
        </mxCell>
        <mxCell id="8VMu90FHNc5uFZkxF0Xm-73" style="edgeStyle=orthogonalEdgeStyle;rounded=0;orthogonalLoop=1;jettySize=auto;html=1;exitX=0;exitY=0.25;exitDx=0;exitDy=0;endArrow=circle;endFill=0;" parent="90Y9QjRsGdumL3US-0Al-114" source="90Y9QjRsGdumL3US-0Al-115" edge="1">
          <mxGeometry relative="1" as="geometry">
            <mxPoint x="-140" y="47.66666666666674" as="targetPoint" />
          </mxGeometry>
        </mxCell>
        <mxCell id="90Y9QjRsGdumL3US-0Al-115" value="" style="rounded=0;whiteSpace=wrap;html=1;fillColor=#dae8fc;strokeColor=#6c8ebf;container=1;" parent="90Y9QjRsGdumL3US-0Al-114" vertex="1">
          <mxGeometry width="120.00000000000001" height="190" as="geometry" />
        </mxCell>
        <mxCell id="90Y9QjRsGdumL3US-0Al-116" value="" style="rounded=0;whiteSpace=wrap;html=1;" parent="90Y9QjRsGdumL3US-0Al-115" vertex="1">
          <mxGeometry width="120" height="30" as="geometry" />
        </mxCell>
        <mxCell id="90Y9QjRsGdumL3US-0Al-117" value="&lt;font size=&quot;1&quot;&gt;Backend&lt;/font&gt;" style="text;html=1;align=center;verticalAlign=middle;whiteSpace=wrap;rounded=0;" parent="90Y9QjRsGdumL3US-0Al-115" vertex="1">
          <mxGeometry x="3" y="16" width="69" height="7" as="geometry" />
        </mxCell>
        <mxCell id="90Y9QjRsGdumL3US-0Al-118" value="" style="group" parent="90Y9QjRsGdumL3US-0Al-114" connectable="0" vertex="1">
          <mxGeometry x="85" y="5" width="40" height="30" as="geometry" />
        </mxCell>
        <mxCell id="90Y9QjRsGdumL3US-0Al-119" value="" style="whiteSpace=wrap;html=1;aspect=fixed;" parent="90Y9QjRsGdumL3US-0Al-118" vertex="1">
          <mxGeometry x="10" width="20" height="20" as="geometry" />
        </mxCell>
        <mxCell id="90Y9QjRsGdumL3US-0Al-120" value="" style="rounded=0;whiteSpace=wrap;html=1;" parent="90Y9QjRsGdumL3US-0Al-118" vertex="1">
          <mxGeometry x="3" y="1.5" width="10" height="7" as="geometry" />
        </mxCell>
        <mxCell id="90Y9QjRsGdumL3US-0Al-121" value="" style="rounded=0;whiteSpace=wrap;html=1;" parent="90Y9QjRsGdumL3US-0Al-118" vertex="1">
          <mxGeometry x="3" y="11.5" width="10" height="7" as="geometry" />
        </mxCell>
        <mxCell id="90Y9QjRsGdumL3US-0Al-122" value="&lt;font style=&quot;font-size: 10px;&quot;&gt;&amp;lt;&amp;lt;service&amp;gt;&amp;gt;&lt;/font&gt;" style="text;html=1;align=center;verticalAlign=middle;whiteSpace=wrap;rounded=0;" parent="90Y9QjRsGdumL3US-0Al-114" vertex="1">
          <mxGeometry x="6" y="2" width="60" height="10" as="geometry" />
        </mxCell>
        <mxCell id="90Y9QjRsGdumL3US-0Al-238" value="&lt;font style=&quot;font-size: 17px;&quot;&gt;&lt;b&gt;&lt;i&gt;&lt;u&gt;Microservice Architecture of TaxiAllDrive Application&lt;/u&gt;&lt;/i&gt;&lt;/b&gt;&lt;/font&gt;" style="text;html=1;align=center;verticalAlign=middle;whiteSpace=wrap;rounded=0;" parent="1" vertex="1">
          <mxGeometry x="-1360" y="-803" width="174.83" height="90" as="geometry" />
        </mxCell>
        <mxCell id="8VMu90FHNc5uFZkxF0Xm-29" value="&lt;font style=&quot;font-size: 8px;&quot;&gt;Авторизация&lt;/font&gt;" style="text;html=1;align=center;verticalAlign=middle;whiteSpace=wrap;rounded=0;" parent="1" vertex="1">
          <mxGeometry x="-1626" y="-590" width="60" height="30" as="geometry" />
        </mxCell>
        <mxCell id="8VMu90FHNc5uFZkxF0Xm-36" value="&lt;font style=&quot;font-size: 9px;&quot;&gt;Данные о&lt;/font&gt;&lt;span style=&quot;font-size: 9px; background-color: initial;&quot;&gt;&amp;nbsp;заказах&lt;/span&gt;" style="text;html=1;align=center;verticalAlign=middle;whiteSpace=wrap;rounded=0;" parent="1" vertex="1">
          <mxGeometry x="-1659" y="-550" width="126" height="10" as="geometry" />
        </mxCell>
        <mxCell id="8VMu90FHNc5uFZkxF0Xm-45" value="&lt;font style=&quot;font-size: 9px;&quot;&gt;Данные о водителях&lt;/font&gt;" style="text;html=1;align=center;verticalAlign=middle;whiteSpace=wrap;rounded=0;" parent="1" vertex="1">
          <mxGeometry x="-1659" y="-520" width="126" height="10" as="geometry" />
        </mxCell>
        <mxCell id="8VMu90FHNc5uFZkxF0Xm-50" value="&lt;font style=&quot;font-size: 9px;&quot;&gt;Данные о клиентах&lt;/font&gt;" style="text;html=1;align=center;verticalAlign=middle;whiteSpace=wrap;rounded=0;" parent="1" vertex="1">
          <mxGeometry x="-1659" y="-490" width="126" height="10" as="geometry" />
        </mxCell>
        <mxCell id="8VMu90FHNc5uFZkxF0Xm-53" value="&lt;font style=&quot;font-size: 9px;&quot;&gt;Данные о автомобилях&lt;/font&gt;" style="text;html=1;align=center;verticalAlign=middle;whiteSpace=wrap;rounded=0;" parent="1" vertex="1">
          <mxGeometry x="-1659" y="-460" width="126" height="10" as="geometry" />
        </mxCell>
        <mxCell id="8VMu90FHNc5uFZkxF0Xm-57" value="&lt;font style=&quot;font-size: 9px;&quot;&gt;Данные о заказах&lt;/font&gt;" style="text;html=1;align=center;verticalAlign=middle;whiteSpace=wrap;rounded=0;" parent="1" vertex="1">
          <mxGeometry x="-2033" y="-482" width="126" height="10" as="geometry" />
        </mxCell>
        <mxCell id="8VMu90FHNc5uFZkxF0Xm-59" value="&lt;font style=&quot;font-size: 9px;&quot;&gt;Данные о клиентах&lt;/font&gt;" style="text;html=1;align=center;verticalAlign=middle;whiteSpace=wrap;rounded=0;" parent="1" vertex="1">
          <mxGeometry x="-2038" y="-518" width="126" height="10" as="geometry" />
        </mxCell>
        <mxCell id="8VMu90FHNc5uFZkxF0Xm-65" style="edgeStyle=orthogonalEdgeStyle;rounded=0;orthogonalLoop=1;jettySize=auto;html=1;exitX=0;exitY=0.25;exitDx=0;exitDy=0;endArrow=halfCircle;endFill=0;" parent="1" edge="1">
          <mxGeometry relative="1" as="geometry">
            <mxPoint x="-1969" y="-461" as="targetPoint" />
            <mxPoint x="-1849" y="-461.4999999999999" as="sourcePoint" />
          </mxGeometry>
        </mxCell>
        <mxCell id="8VMu90FHNc5uFZkxF0Xm-71" style="edgeStyle=orthogonalEdgeStyle;rounded=0;orthogonalLoop=1;jettySize=auto;html=1;exitX=1;exitY=0.5;exitDx=0;exitDy=0;endArrow=circle;endFill=0;" parent="1" edge="1">
          <mxGeometry relative="1" as="geometry">
            <mxPoint x="-1971" y="-461.31034482758616" as="targetPoint" />
            <mxPoint x="-2121" y="-460.9999999999999" as="sourcePoint" />
          </mxGeometry>
        </mxCell>
        <mxCell id="8VMu90FHNc5uFZkxF0Xm-75" value="&lt;font size=&quot;1&quot;&gt;Новый заказ&lt;/font&gt;" style="text;html=1;align=center;verticalAlign=middle;whiteSpace=wrap;rounded=0;" parent="1" vertex="1">
          <mxGeometry x="-2050" y="-570" width="126" height="10" as="geometry" />
        </mxCell>
        <mxCell id="8VMu90FHNc5uFZkxF0Xm-77" style="edgeStyle=orthogonalEdgeStyle;rounded=0;orthogonalLoop=1;jettySize=auto;html=1;exitX=0;exitY=0.25;exitDx=0;exitDy=0;endArrow=circle;endFill=0;" parent="1" edge="1">
          <mxGeometry relative="1" as="geometry">
            <mxPoint x="-1990" y="-422.33333333333326" as="targetPoint" />
            <mxPoint x="-1850" y="-422" as="sourcePoint" />
          </mxGeometry>
        </mxCell>
        <mxCell id="8VMu90FHNc5uFZkxF0Xm-79" style="edgeStyle=orthogonalEdgeStyle;rounded=0;orthogonalLoop=1;jettySize=auto;html=1;exitX=1;exitY=0.25;exitDx=0;exitDy=0;endArrow=halfCircle;endFill=0;" parent="1" edge="1">
          <mxGeometry relative="1" as="geometry">
            <mxPoint x="-1990" y="-422.33333333333326" as="targetPoint" />
            <mxPoint x="-2120" y="-422" as="sourcePoint" />
          </mxGeometry>
        </mxCell>
        <mxCell id="8VMu90FHNc5uFZkxF0Xm-80" value="&lt;font size=&quot;1&quot;&gt;Новый клиент&lt;/font&gt;" style="text;html=1;align=center;verticalAlign=middle;whiteSpace=wrap;rounded=0;" parent="1" vertex="1">
          <mxGeometry x="-2050" y="-440" width="126" height="10" as="geometry" />
        </mxCell>
      </root>
    </mxGraphModel>
  </diagram>
</mxfile>
